<?xml version="1.0" encoding="UTF-8"?>
<svg width="248px" height="58px" viewBox="0 0 248 58" version="1.1" xmlns="http://www.w3.org/2000/svg" xmlns:xlink="http://www.w3.org/1999/xlink">
    <title>Sloth-Horizontal-Black</title>
    <defs>
        <linearGradient x1="50%" y1="100%" x2="50%" y2="-0.0245700246%" id="linearGradient-1">
            <stop stop-color="#FFFFFF" stop-opacity="0" offset="0%"></stop>
            <stop stop-color="#FFFFFF" offset="50%"></stop>
            <stop stop-color="#FFFFFF" stop-opacity="0" offset="100%"></stop>
        </linearGradient>
        <linearGradient x1="50.038373%" y1="100%" x2="50.038373%" y2="-0.0245700246%" id="linearGradient-2">
            <stop stop-color="#FFFFFF" stop-opacity="0" offset="0%"></stop>
            <stop stop-color="#FFFFFF" offset="50%"></stop>
            <stop stop-color="#FFFFFF" stop-opacity="0" offset="100%"></stop>
        </linearGradient>
    </defs>
    <g id="Page-1" stroke="none" stroke-width="1" fill="none" fill-rule="evenodd">
        <g id="Landing-Page" transform="translate(-120.000000, -52.000000)" fill-rule="nonzero">
            <g id="Nav" transform="translate(120.000000, 48.000000)">
                <g id="Sloth-Horizontal-Black" transform="translate(0.000000, 4.000000)">
                    <path d="M63.3247283,21.6887323 C64.8109904,21.2640887 65.8711906,19.4084208 66,17.7343924 C63.5724387,19.3200557 63.2900489,19.2906006 61.4644236,16.9980162 C60.798895,16.2149654 60.2177496,15.3651562 59.7304513,14.4624276 C57.5580316,10.2258102 54.5533051,6.87775327 49.8418544,5.31418124 C47.3003463,4.73489866 40.7607933,3.3505115 37.1962415,4.76189912 C36.0691594,5.19636105 35.4622691,5.06626793 34.8454703,4.01079545 C33.7134341,2.08885369 31.9447822,0.873833035 29.8912635,0 C29.6584158,0.525281656 29.8615383,0.905742668 30.0250271,1.28865827 C30.5774212,2.54786149 30.3941155,2.98968718 28.8682198,2.60186241 C25.9105583,1.84094038 22.8909693,1.62002754 19.8713802,2.27294773 C17.855018,2.73195553 15.8733353,3.31860186 14.3870732,5.23563445 C15.0781851,5.40500096 15.556266,5.52527574 16.3291223,5.7044606 C14.2285386,7.08884777 12.3087835,8.25968585 11.1123425,10.1865368 C10.6169218,10.9842776 9.77470667,11.8016551 10.1933372,12.7883992 C10.7135289,14.0156928 11.8282254,12.6435785 12.7843873,13.1958607 C11.2981253,15.6651754 9.33625937,17.5723896 6.69566713,18.7677736 C6.05657445,19.0598694 5.04096205,19.0819607 5.00132839,19.8870653 C4.96169474,20.7854442 5.81629542,21.4972745 6.57924327,21.6789139 C8.44202504,22.1182851 7.96394408,23.0264823 7.53045098,24.3102314 C5.27628687,30.9940723 5.52399721,37.3195434 8.89781207,43.0951871 C12.2222327,47.077973 16.4466386,50.2288305 21.2288329,52.2925252 L21.256081,52.2925252 C23.9080186,53.4360377 26.7007348,54.2275291 29.5618088,54.6464743 L29.5618088,54.6464743 C31.1971848,54.8850377 32.848154,55.0031814 34.501153,55 C36.4068706,54.9988819 38.3089314,54.8346317 40.1861053,54.5090174 L40.1861053,54.5090174 C46.120036,53.4785141 51.6563833,50.8590079 56.1956247,46.9341614 C56.866094,46.3548788 57.5134437,45.7477776 58.1376738,45.1128577 C58.2441892,45.0073105 58.3507047,44.8993086 58.454743,44.7888522 L58.5117164,44.7323967 C63.699104,39.3019717 65.3516037,31.4365641 62.7822427,24.4059603 C62.7054525,24.1948658 62.623708,23.9837713 62.5345323,23.7726768 C62.1357187,22.749114 61.7988326,22.1133759 63.3247283,21.6887323 Z" id="Path" fill="#EC1C24" opacity="0.8"></path>
                    <path d="M58.3223599,24.6763879 C59.8085616,24.2516496 60.8711959,22.3955674 61,20.7211653 C58.5725372,22.3071825 58.2876819,22.2777209 56.4646078,19.9846247 C55.8044188,19.2062413 55.227491,18.3620656 54.7430909,17.4656561 C52.5707594,13.2280929 49.5661549,9.87928859 44.8548956,8.31536752 C42.3134907,7.73595564 35.7742032,6.35125943 32.2097961,7.76296212 C31.0827598,8.19752104 30.4758941,8.06739888 29.8591204,7.01169078 C28.7271301,5.08931998 26.9560731,3.8740281 24.9051148,3 C24.6722765,3.52539891 24.8753907,3.90594486 25.0388729,4.28894594 C25.5912446,5.54843025 25.4079464,5.9928097 23.8821126,5.60244322 C20.9097092,4.84135134 17.9026278,4.62038918 14.8856383,5.27591025 C12.854496,5.72274484 10.8629857,6.30952213 9.38173805,8.22207239 C10.0728218,8.39147671 10.5508834,8.51177833 11.3237083,8.6910032 C9.22320987,10.0756994 7.30353268,11.2467988 6.10714031,13.1740799 C5.61173975,13.9719988 4.76955878,14.7895588 5.18817226,15.7765231 C5.70834286,17.0040907 6.82299413,15.6316702 7.77911722,16.1840756 C6.29291552,18.6563966 4.33112928,20.5640366 1.69064427,21.7572323 C1.05900855,22.0469382 0.0409603845,22.0690344 0.00132833922,22.8669533 C-0.038303706,23.7655328 0.81626227,24.477522 1.57917914,24.659202 C3.42950025,25.0986712 2.96382372,26.0070712 2.52787122,27.2861966 C2.19760418,28.2486095 1.9267852,29.2028387 1.7154143,30.1488841 C-0.137397896,38.2127588 2.98906485,46.6002924 9.6864094,51.5331109 L9.75081147,51.5797585 C11.7619952,53.0563203 13.9358742,54.30169 16.2306509,55.2919228 L16.2554209,55.2919228 C18.9082229,56.4353842 21.7016023,57.2270363 24.5632884,57.6463974 L24.5632884,57.6463974 C28.0903218,58.1609084 31.6776339,58.1136656 35.1896305,57.5064547 L35.1896305,57.5064547 C41.1225612,56.4756559 46.6578682,53.8555455 51.1960228,49.9299077 C51.8697676,49.3504958 52.5162653,48.7416223 53.14047,48.1106526 C53.2469811,48.0026267 53.3534923,47.8946007 53.4575264,47.7841196 C55.332434,45.8307831 56.9579783,43.656414 58.2975899,41.3099283 C59.5980164,36.4659467 59.4766433,31.6023241 57.5421041,26.7632528 C57.1358756,25.7370063 56.7990032,25.1035814 58.3223599,24.6763879 Z" id="Path" fill="#00ADEE" opacity="0.8"></path>
                    <g id="Group" style="mix-blend-mode: luminosity;" transform="translate(3.000000, 1.000000)">
                        <path d="M54.414522,21.0392772 C54.2262239,20.688459 54.0329706,20.3204679 53.8149412,19.9083179 L53.8149412,19.9083179 C54.0811963,19.9216517 54.3457075,19.9585988 54.6052977,20.0187152 C55.3485796,20.1855378 56.0918616,20.4701176 56.7930242,20.4578512 C57.1987028,20.4588314 57.5954784,20.3401136 57.9327232,20.1168462 C55.9476901,18.5964464 54.2962397,16.6915979 53.0790921,14.5184751 C53.041928,14.4497834 52.9998087,14.383545 52.9626446,14.3148533 C51.0127683,10.7944053 48.364207,8.03937864 44.3653501,6.77839585 C43.4200608,6.53033836 42.4590859,6.34511233 41.488849,6.22395594 C39.9601658,6.00316129 38.6718105,5.87804432 39.638077,6.00070801 C37.8368571,5.77255354 34.2269845,5.53703924 30.9862752,6.88143335 L30.9862752,6.88143335 C30.6443655,7.02372324 30.2429933,7.2248917 29.9308148,7.20526551 C29.6830542,7.19054587 29.4675024,7.04089616 29.3609654,6.61893304 C29.3460997,6.55514792 29.3238013,6.48890952 29.3015028,6.42267113 C29.0509889,5.76150605 28.66073,5.16095628 28.1568486,4.66122045 C27.5349694,4.05035525 26.9031797,3.89089244 26.8660156,5.04393118 L26.8660156,5.04393118 C26.8660156,5.15678178 26.6430311,5.04393118 26.4324345,4.95316005 C26.3530766,4.91296278 26.2701371,4.88011279 26.1846739,4.85502909 C25.0771838,4.5434633 23.9895145,4.19264513 22.8696364,3.94486447 C21.4278282,3.60519048 19.9487934,3.44530596 18.4669297,3.46892933 C16.8857585,3.50230573 15.3147308,3.72806528 13.7892087,4.14112638 C14.6662814,4.48213146 15.4070857,4.58026241 15.3079814,5.36776334 C15.2262204,6.03260057 14.6266397,6.12582498 14.1088199,6.28774106 C13.6454769,6.42327896 13.1939172,6.59556566 12.7585244,6.80292859 C10.7764392,7.80386435 8.68286174,8.65269712 7.74137128,10.8900829 L7.77358017,10.9195222 L7.77358017,10.9195222 C9.06193553,10.8262978 10.0455453,9.77139003 11.3735424,9.82536206 L11.3735424,9.82536206 C9.82503832,14.3786385 6.68095571,17.6758386 2.54583051,20.3425474 C2.79757306,20.4504656 3.06709209,20.5119875 3.34114219,20.5240896 C4.25290137,20.563342 4.97884006,20.0334348 5.76671892,19.9941825 C5.9140352,19.9867484 6.06167336,19.9999632 6.20525527,20.0334348 C1.07413227,30.2316945 1.46063887,38.7077559 7.47626739,45.4935116 C8.00647517,46.0921104 8.57962814,46.6768074 9.19572628,47.2476025 L9.37411395,47.4119718 C9.5871881,47.6057805 9.80769508,47.7971358 10.0306797,47.9860379 L10.0901422,48.0375567 L10.4047982,48.3025102 C10.5856635,48.45216 10.771484,48.6018097 10.9597821,48.7490061 L11.4726466,49.1464365 L11.9136606,49.4751752 C12.1391228,49.6370913 12.3670626,49.7990073 12.5999576,49.96583 C12.7436587,50.0664142 12.8898375,50.1645452 13.0384939,50.2651294 C13.2862546,50.431952 13.5340152,50.5963214 13.7817759,50.7557842 L14.2104018,51.0280976 C14.4631176,51.1916492 14.7207887,51.3486587 14.983415,51.4991262 L15.3946977,51.7444536 C15.6920104,51.9137295 15.9918008,52.0854586 16.299024,52.2522813 L16.4575908,52.3405991 L16.2445167,52.2939869 C18.8980648,53.435793 21.6921284,54.2260211 24.5544088,54.6442233 L24.5544088,54.6442233 C28.0820502,55.1609267 31.6705223,55.1145442 35.1833406,54.50684 L35.1833406,54.50684 C41.117911,53.477423 46.6547228,50.8592253 51.1936336,46.9360367 C51.8675425,46.353793 52.5158496,45.7470166 53.1385547,45.1157074 L53.4556883,44.7918753 C58.2994089,38.3863771 59.104631,29.3362496 55.0785205,22.2217552 C54.8456255,21.8194183 54.6325514,21.4440674 54.414522,21.0392772 Z M29.3906966,9.99954451 C29.7772032,9.99954451 30.1686651,9.99954451 30.5626045,9.99954451 C32.8749892,10.0285265 35.171827,10.3786699 37.3859327,11.0397326 C39.033541,11.5696398 40.2054489,12.2025845 40.6340748,12.9164872 C38.6519896,12.5264166 36.8904114,11.7438223 35.1511317,11.4567892 C33.5038774,11.1685567 31.8380483,10.9963954 30.1661875,10.9416017 C29.7499496,10.9416017 29.3287565,10.9416017 28.9050858,10.9416017 C27.6973987,10.9816865 26.4934173,11.0963958 25.3001683,11.28506 C23.5658438,11.5303874 21.8315193,12.3473276 19.8221804,12.7226786 C20.2904481,12.0210422 21.405371,11.3782844 23.2041133,10.8532838 C24.7005876,10.3896151 26.9799855,10.0584231 29.3832638,10.0093576 L29.3906966,9.99954451 Z M50.6113961,44.8065949 C45.6041534,51.1458547 36.4246214,53.4372126 29.7995017,53.2360441 C23.8755446,53.4372126 15.8827861,51.6438693 10.6674245,46.7226018 C7.05755189,43.3248175 4.77815394,38.4133631 5.44958529,31.6227009 C6.73050784,18.4829657 19.9262399,15.8015373 26.712404,15.2495507 C27.9512073,15.1489665 28.9992348,15.1195272 29.7003974,15.1097141 L29.7796808,15.1097141 C32.0095267,15.1293403 37.5990069,15.3550415 42.8713534,17.4427776 C48.2477595,19.5820324 53.2921663,23.6814532 54.0899555,31.5368363 C54.6622826,37.1867261 53.1881068,41.5412873 50.6039632,44.816408 L50.6113961,44.8065949 Z" id="Shape" fill="#A98665"></path>
                        <path d="M58.324185,21.6746751 C59.8107489,21.2478054 60.8711645,19.3931304 61,17.7224508 C58.5719457,19.3072658 58.2870209,19.2778265 56.4635026,16.9864686 C55.8034377,16.2102211 55.2263777,15.3683418 54.7415661,14.4743161 C52.5687052,10.2399654 49.5633685,6.89124645 44.850961,5.32851096 C42.3089368,4.74953831 35.7680557,3.36589182 32.215168,4.77652433 C31.0878571,5.21320708 30.4808435,5.08318357 29.8639195,4.02582251 C28.7143101,2.09264266 26.9477767,0.878272064 24.9037513,0 C24.6708563,0.522547345 24.87402,0.905258077 25.0375421,1.28796881 C25.5900483,2.54404506 25.4067054,2.98808764 23.8804998,2.59801708 C20.9222377,1.83750217 17.9020354,1.61670751 14.8818331,2.27173165 C12.8576286,2.72558733 10.8582002,3.31437307 9.38897958,5.22792673 C10.0802318,5.3996559 10.5584098,5.51741305 11.3314231,5.69895532 C9.23041277,7.08260181 7.31026775,8.25281347 6.11358383,10.1786335 C5.61806253,10.9734943 4.77567633,11.7904345 5.19439183,12.7766506 C5.71468919,14.0032875 6.8296121,12.6319074 7.7859682,13.1838941 C6.29940431,15.6543409 4.33713999,17.5605347 1.69601149,18.7528259 C1.05678902,19.0472187 0.03849276,19.0692982 0.00132866293,19.873972 C-0.0383130406,20.769417 0.816461192,21.4833197 1.57956399,21.6624087 C3.41794799,22.103998 2.94720276,23.0092561 2.51857684,24.2874118 C2.18822931,25.2458242 1.91651847,26.19933 1.70344431,27.1479292 C-0.146109287,35.2020613 2.97964904,43.5780622 9.67390433,48.506132 L9.7383221,48.5551975 C11.7504278,50.0272937 13.9248264,51.2684215 16.2197406,52.2547345 L16.2445167,52.2670009 L16.4575908,52.3136131 L16.299024,52.2252952 C15.9918008,52.0584726 15.6920104,51.8867434 15.3946977,51.7174675 L14.983415,51.4721402 C14.7207887,51.3085886 14.4631176,51.151579 14.2104018,51.0011116 L13.7916863,50.7410645 C13.5439256,50.5766952 13.296165,50.4123258 13.0484043,50.2504097 C12.899748,50.1498255 12.7535692,50.0516946 12.609868,49.9511103 C12.376973,49.7891942 12.1490332,49.6272782 11.923571,49.4604555 L11.4825571,49.1317168 L10.9696925,48.7342865 C10.7813944,48.58709 10.5955739,48.4374403 10.4147087,48.2877906 L10.1000526,48.022837 L10.0405901,47.9713183 C9.8176055,47.7824162 9.59709853,47.5910608 9.38402437,47.3972522 L9.20563671,47.2328828 C9.00247298,47.0439807 8.80674206,46.8550786 8.61348876,46.6637233 C8.54907099,46.5999381 8.48217562,46.536153 8.42023545,46.4699146 C8.26166864,46.3104518 8.10557943,46.150989 7.95444544,45.9792598 C7.85534118,45.8762223 7.75871453,45.7682783 7.66456548,45.6627875 C7.57041643,45.5572967 7.50847627,45.4910583 7.43167047,45.4027405 C7.28053648,45.2334646 7.1343577,45.0617354 6.99065652,44.8875529 C6.96092524,44.8507538 6.92871636,44.8139547 6.89898508,44.7747023 C6.74289587,44.583347 6.58928427,44.3895383 6.44062788,44.1957297 L6.408419,44.1515708 C1.45320606,37.5988761 1.41108675,29.5570442 6.23003133,20.0089021 C6.08644942,19.9754304 5.93881127,19.9622157 5.79149499,19.9696497 C5.00361613,19.999089 4.27767743,20.5388093 3.36591825,20.4995569 C3.09186815,20.4874548 2.82234913,20.4259329 2.57060657,20.3180146 C6.69582135,17.6782919 9.83990396,14.3786385 11.388408,9.82536206 L11.388408,9.82536206 C10.0604109,9.77139003 9.07680117,10.8262978 7.7884458,10.9195222 L7.7884458,10.9195222 L7.75623692,10.8900829 C8.69772738,8.65269712 10.8012153,7.80386435 12.77339,6.80292859 C13.1996829,6.59354661 13.6420857,6.41799526 14.0964319,6.27792797 C14.6142516,6.11601189 15.2138324,6.03260057 15.2955934,5.35795025 C15.3946977,4.57290259 14.6538933,4.47477163 13.7768206,4.13131328 C15.3023428,3.71825218 16.8733705,3.49249264 18.4545417,3.45911623 C19.9364054,3.43549286 21.4154402,3.59537738 22.8572484,3.93505137 C23.9771265,4.18037876 25.0647957,4.53365021 26.1722858,4.845216 C26.2577491,4.8702997 26.3406886,4.90314968 26.4200465,4.94334695 C26.630643,5.03902464 26.8461948,5.14696869 26.8536276,5.03411809 L26.8536276,5.03411809 C26.8907917,3.88107934 27.5225814,4.04054215 28.1444606,4.65140736 C28.6459549,5.15731548 29.0320568,5.76382476 29.2767267,6.43003095 C29.2990252,6.49626935 29.3213237,6.56250774 29.3361893,6.62629286 C29.4427264,7.04825598 29.6533229,7.19790569 29.9060388,7.21262533 C30.2281276,7.23225152 30.6195894,7.03108306 30.9614991,6.88879317 L30.9614991,6.88879317 C34.2022084,5.54439906 37.812081,5.77991336 39.6133009,6.00806783 C38.6470344,5.88540414 39.9353898,6.00806783 41.464073,6.23131576 C42.4343098,6.35247216 43.3952848,6.53769818 44.3405741,6.78575567 C48.364207,8.03937864 51.0127683,10.7944053 52.9626446,14.3124001 C52.9998087,14.3810917 53.041928,14.4473301 53.0790921,14.5160218 C54.2959639,16.690028 55.9474316,18.5957312 57.9327232,20.1168462 C57.5974369,20.3409172 57.2024834,20.4613136 56.7979794,20.4627578 C56.0869064,20.4627578 55.3584901,20.1904444 54.6102529,20.0236218 C54.3506628,19.9635053 54.0861515,19.9265583 53.8198964,19.9132244 L53.8198964,19.9132244 C54.0379258,20.3253744 54.2311791,20.6933655 54.4194772,21.0441837 C54.6375066,21.4489739 54.8505807,21.8243248 55.0859534,22.1972224 C59.1120639,29.3288897 58.3068418,38.3741107 53.4631211,44.7796089 L53.5201061,44.7207303 C58.7085472,39.2932107 60.3613825,31.4320113 57.7914996,24.405169 C57.7146938,24.1941874 57.6329328,23.9856591 57.543739,23.7746776 C57.1349339,22.7320362 56.7979794,22.0990915 58.324185,21.6746751 Z" id="Path" fill="#4B4643"></path>
                        <path d="M10.456828,34.1520263 C12.7114499,35.7760936 14.3466701,36.4752767 16.0116217,36.2446689 C17.2504249,36.0729397 18.5313475,35.3786632 20.0947171,34.1544795 C19.0615553,34.2403441 18.0283934,34.3065825 16.9803658,34.3458349 C14.8039567,34.4333413 12.6240237,34.3685774 10.456828,34.1520263 Z" id="Path" fill="#4B4643"></path>
                        <path d="M43.8673512,34.3458349 C42.2680172,34.3585863 40.6691887,34.2840573 39.0781379,34.122587 C42.6657121,36.7156975 44.6725734,36.9389454 47.7671038,34.7849709 C48.0512027,34.585438 48.3476896,34.3662789 48.6565646,34.1274935 C48.3047444,34.1569328 47.9554019,34.1814656 47.6035818,34.2059983 C46.374689,34.2795965 45.140841,34.3311153 43.8673512,34.3458349 Z" id="Path" fill="#4B4643"></path>
                        <path d="M42.5418318,49.6910633 L42.5418318,49.6910633 L42.5294438,49.6910633 C41.4244313,50.2921154 42.5418318,49.6910633 42.5418318,49.6910633 Z" id="Path" fill="#DFCCBD"></path>
                        <path d="M17.1637087,49.7450353 L17.1637087,49.7450353 L17.1637087,49.7450353 C17.1637087,49.7450353 18.263766,50.3362743 17.1637087,49.7450353 Z" id="Path" fill="#DFCCBD"></path>
                        <path d="M49.8383828,24.3168511 C47.9953983,22.3233723 45.8238689,20.6543105 43.4164269,19.380864 C39.9477778,17.5409085 36.0777565,16.5743186 31.9475865,16.2921921 C31.2268334,16.2433013 30.5038526,16.2351104 29.7821585,16.2676594 C29.060277,16.238307 28.3372921,16.2497743 27.6167304,16.3020052 C27.1212091,16.336351 26.6083446,16.3854165 26.1078681,16.4418418 C19.8172252,17.177824 14.1955361,19.5942988 9.75566534,24.3978092 C7.98913193,26.3138161 6.86429859,28.6002674 6.1780016,31.2399901 C7.15417855,31.3479342 7.60014771,30.6634708 8.16008677,30.3200124 C12.1242571,27.8422057 16.2767256,26.4340265 20.7958798,26.8854289 C21.7160369,26.9771704 22.6273665,27.1412394 23.5212469,27.3760837 C27.071657,28.3058745 28.5012359,31.301322 26.9725527,34.6181483 C26.1921067,36.3010942 24.943393,37.5817032 23.4394859,38.6317044 C20.1294036,40.9426885 16.4476804,42.3435079 12.5132413,43.1113826 C12.2010629,43.1727145 11.8888845,43.2315931 11.5717509,43.2831118 C10.9325284,43.3959624 9.89441131,43.3984157 9.64169544,43.6486496 C9.53268076,43.7664068 10.1619928,44.5318282 11.2719605,45.5450304 C13.0585673,47.1665792 15.0339281,48.5715767 17.1562759,49.7303157 C21.2616698,51.5138458 24.383454,51.9799679 28.2138336,52.0928185 C28.7415637,52.1124446 29.2593835,52.1124446 29.7796808,52.1124446 L29.9209044,52.1124446 C30.4387242,52.1124446 30.9590215,52.1124446 31.4867517,52.0903652 C35.3171313,51.9627949 38.4240498,51.4844065 42.5368766,49.68861 C46.828091,47.3653596 50.271964,43.8424583 50.0266809,43.5799579 C49.7813979,43.3174576 48.735848,43.3346306 48.0941479,43.22178 C43.8029335,42.5152371 39.7941662,41.0923382 36.2016368,38.6120783 C34.6853417,37.5669836 33.4415832,36.281468 32.656182,34.6107885 C31.1151107,31.3111351 32.5323016,28.2985147 36.0802341,27.3564575 C39.2450991,26.4973632 42.5935604,26.5646803 45.7206009,27.5502661 C47.7429152,28.1921618 49.6719318,29.0927656 51.4587375,30.2292413 C52.0062885,30.5702463 52.4497801,31.2522565 53.4408227,31.1418592 C52.7470928,28.5094962 51.6098715,26.2254982 49.8383828,24.3168511 Z M29.8143673,45.3855676 C28.2298203,45.2218654 26.7725982,44.45155 25.7535703,43.2389529 L29.7524272,44.404258 C29.772248,44.404258 29.8019793,44.404258 29.8242778,44.404258 L29.8936507,44.404258 L29.8936507,44.404258 C31.2847515,44.2980084 32.6366026,43.8972726 33.8578211,43.2291398 C32.8413379,44.4374345 31.3926257,45.210052 29.8143673,45.3855676 L29.8143673,45.3855676 Z M33.4415832,38.0085729 C33.4415832,39.1763313 31.2513791,40.974581 29.8168449,41.0064736 C29.7722786,41.0087858 29.7276205,41.0087858 29.6830542,41.0064736 C28.2509977,40.8887165 26.1747634,39.1665182 26.1821763,38.0355589 C26.1821763,37.0076371 27.7752972,36.1661642 29.7499496,36.1269118 L29.8094121,36.1269118 C31.8113182,36.1269118 33.4217624,36.970838 33.4415832,38.0061196 L33.4415832,38.0085729 Z" id="Shape" fill="#DFCCBD"></path>
                        <path d="M29.8936507,44.404258 L29.8242778,44.404258 C29.8019793,44.404258 29.772248,44.404258 29.7524272,44.404258 L25.7535703,43.2340463 C26.7717398,44.4484736 28.2290755,45.2206099 29.8143673,45.3855676 C31.3969133,45.2112296 32.8497028,44.4365734 33.8677315,43.2242332 C32.646513,43.8923661 31.2946619,44.2931019 29.9035612,44.3993514 L29.8936507,44.404258 Z" id="Path" fill="#5C4B42"></path>
                        <path d="M29.7499496,36.1121921 C27.7678644,36.1514445 26.1896291,36.9929175 26.1821963,38.0208392 C26.1821963,39.1517985 28.2509977,40.8739968 29.6830542,40.991754 C29.7276205,40.9940662 29.7722786,40.9940662 29.8168449,40.991754 C31.2513791,40.9598614 33.4539712,39.1616116 33.4416352,37.9938532 C33.4291952,36.9585716 31.8113182,36.1146454 29.8094121,36.0974725 L29.7499496,36.1121921 Z" id="Path" fill="#5C4B42"></path>
                        <path d="M54.0899555,31.5368363 C53.2921663,23.6863597 48.2477595,19.5820324 42.8713534,17.4427776 C37.5990069,15.3452284 32.0070491,15.1293403 29.7796808,15.1097141 L29.7053527,15.1097141 C29.00419,15.1097141 27.9710281,15.1489665 26.7173592,15.2495507 C19.9262399,15.8015373 6.73050784,18.4829657 5.44958529,31.6227009 C4.77815394,38.4133631 7.05755189,43.3248175 10.6674245,46.7324149 C15.8703981,51.6536824 23.8755446,53.4470257 29.7995017,53.2458572 C36.4171886,53.4470257 45.5967206,51.1556678 50.6113961,44.816408 C53.1881068,41.5412873 54.6622826,37.1867261 54.0899555,31.5368363 Z M47.7671038,34.7727046 C44.6725734,36.9266791 42.6657121,36.7034311 39.0781379,34.1103206 C40.6691887,34.271791 42.2680172,34.3463199 43.8673512,34.3335685 C45.140841,34.3335685 46.374689,34.2795965 47.6035818,34.1937319 C47.9554019,34.1691992 48.3047444,34.1446664 48.6565646,34.1152272 C48.3493414,34.355648 48.0528544,34.5748071 47.7671038,34.7727046 Z M51.4661703,30.2341478 C49.6793647,29.0976721 47.750348,28.1970683 45.7280337,27.5551727 C42.6009933,26.5695868 39.2525319,26.5022698 36.0876669,27.3613641 C32.5397345,28.3034212 31.132454,31.3160416 32.6636148,34.615695 C33.449016,36.2863746 34.6927745,37.5718901 36.2090696,38.6169848 C39.7916886,41.0972447 43.8004559,42.5201436 48.1015807,43.2266865 C48.7432808,43.3272707 49.7913083,43.3248175 50.0341138,43.5848645 C50.2769192,43.8449115 46.8355238,47.3702662 42.5443094,49.6935166 L42.5443094,49.6935166 C42.5443094,49.6935166 41.4269089,50.2994752 42.5244885,49.6935166 L42.5368766,49.6935166 C38.4364379,51.4893131 35.3171313,51.9677015 31.4867517,52.0952717 C30.9590215,52.1173512 30.4387242,52.1173512 29.9209044,52.1173512 L29.7796808,52.1173512 C29.2593835,52.1173512 28.7415637,52.1173512 28.2138336,52.097725 C24.383454,51.9848744 21.2616698,51.5187524 17.1562759,49.7352222 L17.1562759,49.7352222 C18.2563331,50.3264612 17.136455,49.7352222 17.136455,49.7352222 L17.136455,49.7352222 C15.0141073,48.5764833 13.0387465,47.1714857 11.2521397,45.5499369 C10.142172,44.5367348 9.51781512,43.7713133 9.62187459,43.6535562 C9.86963524,43.4082288 10.9127076,43.4082288 11.55193,43.2880184 C11.8690637,43.2364996 12.1812421,43.177621 12.4934205,43.1162892 C16.4278596,42.3484144 20.1095828,40.947595 23.419665,38.636611 C24.9235722,37.5866098 26.1722858,36.3060008 26.9527319,34.6230549 C28.4814151,31.3184949 27.0518361,28.3107811 23.501426,27.3809902 C22.6075457,27.146146 21.696216,26.982077 20.7760589,26.8903355 C16.2593823,26.4315732 12.1044363,27.8397525 8.14026592,30.3249189 C7.59271489,30.6683773 7.14922333,31.3528407 6.15818075,31.2448967 C6.84447774,28.6051739 7.96931108,26.3187226 9.73584449,24.4027157 C14.1732377,19.5992054 19.7949268,17.1729175 26.0880472,16.4467484 C26.5835685,16.3903231 27.0790898,16.3412576 27.5969095,16.3069118 C28.3174712,16.2546808 29.0404562,16.2432136 29.7623376,16.2725659 C30.4840317,16.240017 31.2070126,16.2482078 31.9277657,16.2970987 C36.0579356,16.5792252 39.9254794,17.5458151 43.396606,19.3857705 C45.8048003,20.6621733 47.9763766,22.3345893 49.818562,24.3315708 C51.5900506,26.2402179 52.7223168,28.5242159 53.4185242,31.1614854 C52.4646457,31.257163 52.0038109,30.5751529 51.4661703,30.2341478 Z M20.0947171,34.1593861 C18.5313475,35.386023 17.262813,36.0778463 16.0116217,36.2495755 C14.3466701,36.4801832 12.7114499,35.7810002 10.456828,34.1569328 C12.6240237,34.3734839 14.8039567,34.4382478 16.9803658,34.3507415 C18.0283934,34.3065825 19.0516448,34.2403441 20.0947171,34.1544795 L20.0947171,34.1593861 Z" id="Shape" fill="#5C4B42"></path>
                        <path d="M28.8976529,10.9587746 C29.3213237,10.9465082 29.7425168,10.944055 30.1587546,10.9587746 C31.8345822,11.0105566 33.5045705,11.1802604 35.1560869,11.4666023 C36.8904114,11.7536354 38.6643777,12.5362297 40.63903,12.9263003 C40.1980161,12.2123976 39.0261082,11.5794529 37.3859327,11.0397326 C35.1715874,10.3803318 32.8747545,10.0318407 30.5626045,10.0044511 C30.1686651,10.0044511 29.7772032,10.0044511 29.3906966,10.0044511 C26.9824631,10.0412502 24.7080204,10.3847085 23.2115461,10.8483773 C21.405371,11.3782844 20.2904481,12.0210422 19.8221804,12.7300384 C21.8339969,12.3546875 23.5608886,11.5451071 25.3001683,11.2924199 C26.49117,11.1073471 27.6926581,10.9959163 28.8976529,10.9587746 L28.8976529,10.9587746 Z" id="Path" fill="#5C4B42"></path>
                    </g>
                    <g id="Group" style="mix-blend-mode: hue;" transform="translate(3.000000, 1.000000)">
                        <path d="M54.414522,21.0392772 C54.2262239,20.688459 54.0329706,20.3204679 53.8149412,19.9083179 L53.8149412,19.9083179 C54.0811963,19.9216517 54.3457075,19.9585988 54.6052977,20.0187152 C55.3485796,20.1855378 56.0918616,20.4701176 56.7930242,20.4578512 C57.1987028,20.4588314 57.5954784,20.3401136 57.9327232,20.1168462 C55.9476901,18.5964464 54.2962397,16.6915979 53.0790921,14.5184751 C53.041928,14.4497834 52.9998087,14.383545 52.9626446,14.3148533 C51.0127683,10.7944053 48.364207,8.03937864 44.3653501,6.77839585 C43.4200608,6.53033836 42.4590859,6.34511233 41.488849,6.22395594 C39.9601658,6.00316129 38.6718105,5.87804432 39.638077,6.00070801 C37.8368571,5.77255354 34.2269845,5.53703924 30.9862752,6.88143335 L30.9862752,6.88143335 C30.6443655,7.02372324 30.2429933,7.2248917 29.9308148,7.20526551 C29.6830542,7.19054587 29.4675024,7.04089616 29.3609654,6.61893304 C29.3460997,6.55514792 29.3238013,6.48890952 29.3015028,6.42267113 C29.0509889,5.76150605 28.66073,5.16095628 28.1568486,4.66122045 C27.5349694,4.05035525 26.9031797,3.89089244 26.8660156,5.04393118 L26.8660156,5.04393118 C26.8660156,5.15678178 26.6430311,5.04393118 26.4324345,4.95316005 C26.3530766,4.91296278 26.2701371,4.88011279 26.1846739,4.85502909 C25.0771838,4.5434633 23.9895145,4.19264513 22.8696364,3.94486447 C21.4278282,3.60519048 19.9487934,3.44530596 18.4669297,3.46892933 C16.8857585,3.50230573 15.3147308,3.72806528 13.7892087,4.14112638 C14.6662814,4.48213146 15.4070857,4.58026241 15.3079814,5.36776334 C15.2262204,6.03260057 14.6266397,6.12582498 14.1088199,6.28774106 C13.6454769,6.42327896 13.1939172,6.59556566 12.7585244,6.80292859 C10.7764392,7.80386435 8.68286174,8.65269712 7.74137128,10.8900829 L7.77358017,10.9195222 L7.77358017,10.9195222 C9.06193553,10.8262978 10.0455453,9.77139003 11.3735424,9.82536206 L11.3735424,9.82536206 C9.82503832,14.3786385 6.68095571,17.6758386 2.54583051,20.3425474 C2.79757306,20.4504656 3.06709209,20.5119875 3.34114219,20.5240896 C4.25290137,20.563342 4.97884006,20.0334348 5.76671892,19.9941825 C5.9140352,19.9867484 6.06167336,19.9999632 6.20525527,20.0334348 C1.07413227,30.2316945 1.46063887,38.7077559 7.47626739,45.4935116 C8.00647517,46.0921104 8.57962814,46.6768074 9.19572628,47.2476025 L9.37411395,47.4119718 C9.5871881,47.6057805 9.80769508,47.7971358 10.0306797,47.9860379 L10.0901422,48.0375567 L10.4047982,48.3025102 C10.5856635,48.45216 10.771484,48.6018097 10.9597821,48.7490061 L11.4726466,49.1464365 L11.9136606,49.4751752 C12.1391228,49.6370913 12.3670626,49.7990073 12.5999576,49.96583 C12.7436587,50.0664142 12.8898375,50.1645452 13.0384939,50.2651294 C13.2862546,50.431952 13.5340152,50.5963214 13.7817759,50.7557842 L14.2104018,51.0280976 C14.4631176,51.1916492 14.7207887,51.3486587 14.983415,51.4991262 L15.3946977,51.7444536 C15.6920104,51.9137295 15.9918008,52.0854586 16.299024,52.2522813 L16.4575908,52.3405991 L16.2445167,52.2939869 C18.8980648,53.435793 21.6921284,54.2260211 24.5544088,54.6442233 L24.5544088,54.6442233 C28.0820502,55.1609267 31.6705223,55.1145442 35.1833406,54.50684 L35.1833406,54.50684 C41.117911,53.477423 46.6547228,50.8592253 51.1936336,46.9360367 C51.8675425,46.353793 52.5158496,45.7470166 53.1385547,45.1157074 L53.4556883,44.7918753 C58.2994089,38.3863771 59.104631,29.3362496 55.0785205,22.2217552 C54.8456255,21.8194183 54.6325514,21.4440674 54.414522,21.0392772 Z M29.3906966,9.99954451 C29.7772032,9.99954451 30.1686651,9.99954451 30.5626045,9.99954451 C32.8749892,10.0285265 35.171827,10.3786699 37.3859327,11.0397326 C39.033541,11.5696398 40.2054489,12.2025845 40.6340748,12.9164872 C38.6519896,12.5264166 36.8904114,11.7438223 35.1511317,11.4567892 C33.5038774,11.1685567 31.8380483,10.9963954 30.1661875,10.9416017 C29.7499496,10.9416017 29.3287565,10.9416017 28.9050858,10.9416017 C27.6973987,10.9816865 26.4934173,11.0963958 25.3001683,11.28506 C23.5658438,11.5303874 21.8315193,12.3473276 19.8221804,12.7226786 C20.2904481,12.0210422 21.405371,11.3782844 23.2041133,10.8532838 C24.7005876,10.3896151 26.9799855,10.0584231 29.3832638,10.0093576 L29.3906966,9.99954451 Z M50.6113961,44.8065949 C45.6041534,51.1458547 36.4246214,53.4372126 29.7995017,53.2360441 C23.8755446,53.4372126 15.8827861,51.6438693 10.6674245,46.7226018 C7.05755189,43.3248175 4.77815394,38.4133631 5.44958529,31.6227009 C6.73050784,18.4829657 19.9262399,15.8015373 26.712404,15.2495507 C27.9512073,15.1489665 28.9992348,15.1195272 29.7003974,15.1097141 L29.7796808,15.1097141 C32.0095267,15.1293403 37.5990069,15.3550415 42.8713534,17.4427776 C48.2477595,19.5820324 53.2921663,23.6814532 54.0899555,31.5368363 C54.6622826,37.1867261 53.1881068,41.5412873 50.6039632,44.816408 L50.6113961,44.8065949 Z" id="Shape" fill="#A98665"></path>
                        <path d="M58.324185,21.6746751 C59.8107489,21.2478054 60.8711645,19.3931304 61,17.7224508 C58.5719457,19.3072658 58.2870209,19.2778265 56.4635026,16.9864686 C55.8034377,16.2102211 55.2263777,15.3683418 54.7415661,14.4743161 C52.5687052,10.2399654 49.5633685,6.89124645 44.850961,5.32851096 C42.3089368,4.74953831 35.7680557,3.36589182 32.215168,4.77652433 C31.0878571,5.21320708 30.4808435,5.08318357 29.8639195,4.02582251 C28.7143101,2.09264266 26.9477767,0.878272064 24.9037513,0 C24.6708563,0.522547345 24.87402,0.905258077 25.0375421,1.28796881 C25.5900483,2.54404506 25.4067054,2.98808764 23.8804998,2.59801708 C20.9222377,1.83750217 17.9020354,1.61670751 14.8818331,2.27173165 C12.8576286,2.72558733 10.8582002,3.31437307 9.38897958,5.22792673 C10.0802318,5.3996559 10.5584098,5.51741305 11.3314231,5.69895532 C9.23041277,7.08260181 7.31026775,8.25281347 6.11358383,10.1786335 C5.61806253,10.9734943 4.77567633,11.7904345 5.19439183,12.7766506 C5.71468919,14.0032875 6.8296121,12.6319074 7.7859682,13.1838941 C6.29940431,15.6543409 4.33713999,17.5605347 1.69601149,18.7528259 C1.05678902,19.0472187 0.03849276,19.0692982 0.00132866293,19.873972 C-0.0383130406,20.769417 0.816461192,21.4833197 1.57956399,21.6624087 C3.41794799,22.103998 2.94720276,23.0092561 2.51857684,24.2874118 C2.18822931,25.2458242 1.91651847,26.19933 1.70344431,27.1479292 C-0.146109287,35.2020613 2.97964904,43.5780622 9.67390433,48.506132 L9.7383221,48.5551975 C11.7504278,50.0272937 13.9248264,51.2684215 16.2197406,52.2547345 L16.2445167,52.2670009 L16.4575908,52.3136131 L16.299024,52.2252952 C15.9918008,52.0584726 15.6920104,51.8867434 15.3946977,51.7174675 L14.983415,51.4721402 C14.7207887,51.3085886 14.4631176,51.151579 14.2104018,51.0011116 L13.7916863,50.7410645 C13.5439256,50.5766952 13.296165,50.4123258 13.0484043,50.2504097 C12.899748,50.1498255 12.7535692,50.0516946 12.609868,49.9511103 C12.376973,49.7891942 12.1490332,49.6272782 11.923571,49.4604555 L11.4825571,49.1317168 L10.9696925,48.7342865 C10.7813944,48.58709 10.5955739,48.4374403 10.4147087,48.2877906 L10.1000526,48.022837 L10.0405901,47.9713183 C9.8176055,47.7824162 9.59709853,47.5910608 9.38402437,47.3972522 L9.20563671,47.2328828 C9.00247298,47.0439807 8.80674206,46.8550786 8.61348876,46.6637233 C8.54907099,46.5999381 8.48217562,46.536153 8.42023545,46.4699146 C8.26166864,46.3104518 8.10557943,46.150989 7.95444544,45.9792598 C7.85534118,45.8762223 7.75871453,45.7682783 7.66456548,45.6627875 C7.57041643,45.5572967 7.50847627,45.4910583 7.43167047,45.4027405 C7.28053648,45.2334646 7.1343577,45.0617354 6.99065652,44.8875529 C6.96092524,44.8507538 6.92871636,44.8139547 6.89898508,44.7747023 C6.74289587,44.583347 6.58928427,44.3895383 6.44062788,44.1957297 L6.408419,44.1515708 C1.45320606,37.5988761 1.41108675,29.5570442 6.23003133,20.0089021 C6.08644942,19.9754304 5.93881127,19.9622157 5.79149499,19.9696497 C5.00361613,19.999089 4.27767743,20.5388093 3.36591825,20.4995569 C3.09186815,20.4874548 2.82234913,20.4259329 2.57060657,20.3180146 C6.69582135,17.6782919 9.83990396,14.3786385 11.388408,9.82536206 L11.388408,9.82536206 C10.0604109,9.77139003 9.07680117,10.8262978 7.7884458,10.9195222 L7.7884458,10.9195222 L7.75623692,10.8900829 C8.69772738,8.65269712 10.8012153,7.80386435 12.77339,6.80292859 C13.1996829,6.59354661 13.6420857,6.41799526 14.0964319,6.27792797 C14.6142516,6.11601189 15.2138324,6.03260057 15.2955934,5.35795025 C15.3946977,4.57290259 14.6538933,4.47477163 13.7768206,4.13131328 C15.3023428,3.71825218 16.8733705,3.49249264 18.4545417,3.45911623 C19.9364054,3.43549286 21.4154402,3.59537738 22.8572484,3.93505137 C23.9771265,4.18037876 25.0647957,4.53365021 26.1722858,4.845216 C26.2577491,4.8702997 26.3406886,4.90314968 26.4200465,4.94334695 C26.630643,5.03902464 26.8461948,5.14696869 26.8536276,5.03411809 L26.8536276,5.03411809 C26.8907917,3.88107934 27.5225814,4.04054215 28.1444606,4.65140736 C28.6459549,5.15731548 29.0320568,5.76382476 29.2767267,6.43003095 C29.2990252,6.49626935 29.3213237,6.56250774 29.3361893,6.62629286 C29.4427264,7.04825598 29.6533229,7.19790569 29.9060388,7.21262533 C30.2281276,7.23225152 30.6195894,7.03108306 30.9614991,6.88879317 L30.9614991,6.88879317 C34.2022084,5.54439906 37.812081,5.77991336 39.6133009,6.00806783 C38.6470344,5.88540414 39.9353898,6.00806783 41.464073,6.23131576 C42.4343098,6.35247216 43.3952848,6.53769818 44.3405741,6.78575567 C48.364207,8.03937864 51.0127683,10.7944053 52.9626446,14.3124001 C52.9998087,14.3810917 53.041928,14.4473301 53.0790921,14.5160218 C54.2959639,16.690028 55.9474316,18.5957312 57.9327232,20.1168462 C57.5974369,20.3409172 57.2024834,20.4613136 56.7979794,20.4627578 C56.0869064,20.4627578 55.3584901,20.1904444 54.6102529,20.0236218 C54.3506628,19.9635053 54.0861515,19.9265583 53.8198964,19.9132244 L53.8198964,19.9132244 C54.0379258,20.3253744 54.2311791,20.6933655 54.4194772,21.0441837 C54.6375066,21.4489739 54.8505807,21.8243248 55.0859534,22.1972224 C59.1120639,29.3288897 58.3068418,38.3741107 53.4631211,44.7796089 L53.5201061,44.7207303 C58.7085472,39.2932107 60.3613825,31.4320113 57.7914996,24.405169 C57.7146938,24.1941874 57.6329328,23.9856591 57.543739,23.7746776 C57.1349339,22.7320362 56.7979794,22.0990915 58.324185,21.6746751 Z" id="Path" fill="#4B4643"></path>
                        <path d="M10.456828,34.1520263 C12.7114499,35.7760936 14.3466701,36.4752767 16.0116217,36.2446689 C17.2504249,36.0729397 18.5313475,35.3786632 20.0947171,34.1544795 C19.0615553,34.2403441 18.0283934,34.3065825 16.9803658,34.3458349 C14.8039567,34.4333413 12.6240237,34.3685774 10.456828,34.1520263 Z" id="Path" fill="#4B4643"></path>
                        <path d="M43.8673512,34.3458349 C42.2680172,34.3585863 40.6691887,34.2840573 39.0781379,34.122587 C42.6657121,36.7156975 44.6725734,36.9389454 47.7671038,34.7849709 C48.0512027,34.585438 48.3476896,34.3662789 48.6565646,34.1274935 C48.3047444,34.1569328 47.9554019,34.1814656 47.6035818,34.2059983 C46.374689,34.2795965 45.140841,34.3311153 43.8673512,34.3458349 Z" id="Path" fill="#4B4643"></path>
                        <path d="M42.5418318,49.6910633 L42.5418318,49.6910633 L42.5294438,49.6910633 C41.4244313,50.2921154 42.5418318,49.6910633 42.5418318,49.6910633 Z" id="Path" fill="#DFCCBD"></path>
                        <path d="M17.1637087,49.7450353 L17.1637087,49.7450353 L17.1637087,49.7450353 C17.1637087,49.7450353 18.263766,50.3362743 17.1637087,49.7450353 Z" id="Path" fill="#DFCCBD"></path>
                        <path d="M49.8383828,24.3168511 C47.9953983,22.3233723 45.8238689,20.6543105 43.4164269,19.380864 C39.9477778,17.5409085 36.0777565,16.5743186 31.9475865,16.2921921 C31.2268334,16.2433013 30.5038526,16.2351104 29.7821585,16.2676594 C29.060277,16.238307 28.3372921,16.2497743 27.6167304,16.3020052 C27.1212091,16.336351 26.6083446,16.3854165 26.1078681,16.4418418 C19.8172252,17.177824 14.1955361,19.5942988 9.75566534,24.3978092 C7.98913193,26.3138161 6.86429859,28.6002674 6.1780016,31.2399901 C7.15417855,31.3479342 7.60014771,30.6634708 8.16008677,30.3200124 C12.1242571,27.8422057 16.2767256,26.4340265 20.7958798,26.8854289 C21.7160369,26.9771704 22.6273665,27.1412394 23.5212469,27.3760837 C27.071657,28.3058745 28.5012359,31.301322 26.9725527,34.6181483 C26.1921067,36.3010942 24.943393,37.5817032 23.4394859,38.6317044 C20.1294036,40.9426885 16.4476804,42.3435079 12.5132413,43.1113826 C12.2010629,43.1727145 11.8888845,43.2315931 11.5717509,43.2831118 C10.9325284,43.3959624 9.89441131,43.3984157 9.64169544,43.6486496 C9.53268076,43.7664068 10.1619928,44.5318282 11.2719605,45.5450304 C13.0585673,47.1665792 15.0339281,48.5715767 17.1562759,49.7303157 C21.2616698,51.5138458 24.383454,51.9799679 28.2138336,52.0928185 C28.7415637,52.1124446 29.2593835,52.1124446 29.7796808,52.1124446 L29.9209044,52.1124446 C30.4387242,52.1124446 30.9590215,52.1124446 31.4867517,52.0903652 C35.3171313,51.9627949 38.4240498,51.4844065 42.5368766,49.68861 C46.828091,47.3653596 50.271964,43.8424583 50.0266809,43.5799579 C49.7813979,43.3174576 48.735848,43.3346306 48.0941479,43.22178 C43.8029335,42.5152371 39.7941662,41.0923382 36.2016368,38.6120783 C34.6853417,37.5669836 33.4415832,36.281468 32.656182,34.6107885 C31.1151107,31.3111351 32.5323016,28.2985147 36.0802341,27.3564575 C39.2450991,26.4973632 42.5935604,26.5646803 45.7206009,27.5502661 C47.7429152,28.1921618 49.6719318,29.0927656 51.4587375,30.2292413 C52.0062885,30.5702463 52.4497801,31.2522565 53.4408227,31.1418592 C52.7470928,28.5094962 51.6098715,26.2254982 49.8383828,24.3168511 Z M29.8143673,45.3855676 C28.2298203,45.2218654 26.7725982,44.45155 25.7535703,43.2389529 L29.7524272,44.404258 C29.772248,44.404258 29.8019793,44.404258 29.8242778,44.404258 L29.8936507,44.404258 L29.8936507,44.404258 C31.2847515,44.2980084 32.6366026,43.8972726 33.8578211,43.2291398 C32.8413379,44.4374345 31.3926257,45.210052 29.8143673,45.3855676 L29.8143673,45.3855676 Z M33.4415832,38.0085729 C33.4415832,39.1763313 31.2513791,40.974581 29.8168449,41.0064736 C29.7722786,41.0087858 29.7276205,41.0087858 29.6830542,41.0064736 C28.2509977,40.8887165 26.1747634,39.1665182 26.1821763,38.0355589 C26.1821763,37.0076371 27.7752972,36.1661642 29.7499496,36.1269118 L29.8094121,36.1269118 C31.8113182,36.1269118 33.4217624,36.970838 33.4415832,38.0061196 L33.4415832,38.0085729 Z" id="Shape" fill="#DFCCBD"></path>
                        <path d="M29.8936507,44.404258 L29.8242778,44.404258 C29.8019793,44.404258 29.772248,44.404258 29.7524272,44.404258 L25.7535703,43.2340463 C26.7717398,44.4484736 28.2290755,45.2206099 29.8143673,45.3855676 C31.3969133,45.2112296 32.8497028,44.4365734 33.8677315,43.2242332 C32.646513,43.8923661 31.2946619,44.2931019 29.9035612,44.3993514 L29.8936507,44.404258 Z" id="Path" fill="#5C4B42"></path>
                        <path d="M29.7499496,36.1121921 C27.7678644,36.1514445 26.1896291,36.9929175 26.1821963,38.0208392 C26.1821963,39.1517985 28.2509977,40.8739968 29.6830542,40.991754 C29.7276205,40.9940662 29.7722786,40.9940662 29.8168449,40.991754 C31.2513791,40.9598614 33.4539712,39.1616116 33.4416352,37.9938532 C33.4291952,36.9585716 31.8113182,36.1146454 29.8094121,36.0974725 L29.7499496,36.1121921 Z" id="Path" fill="#5C4B42"></path>
                        <path d="M54.0899555,31.5368363 C53.2921663,23.6863597 48.2477595,19.5820324 42.8713534,17.4427776 C37.5990069,15.3452284 32.0070491,15.1293403 29.7796808,15.1097141 L29.7053527,15.1097141 C29.00419,15.1097141 27.9710281,15.1489665 26.7173592,15.2495507 C19.9262399,15.8015373 6.73050784,18.4829657 5.44958529,31.6227009 C4.77815394,38.4133631 7.05755189,43.3248175 10.6674245,46.7324149 C15.8703981,51.6536824 23.8755446,53.4470257 29.7995017,53.2458572 C36.4171886,53.4470257 45.5967206,51.1556678 50.6113961,44.816408 C53.1881068,41.5412873 54.6622826,37.1867261 54.0899555,31.5368363 Z M47.7671038,34.7727046 C44.6725734,36.9266791 42.6657121,36.7034311 39.0781379,34.1103206 C40.6691887,34.271791 42.2680172,34.3463199 43.8673512,34.3335685 C45.140841,34.3335685 46.374689,34.2795965 47.6035818,34.1937319 C47.9554019,34.1691992 48.3047444,34.1446664 48.6565646,34.1152272 C48.3493414,34.355648 48.0528544,34.5748071 47.7671038,34.7727046 Z M51.4661703,30.2341478 C49.6793647,29.0976721 47.750348,28.1970683 45.7280337,27.5551727 C42.6009933,26.5695868 39.2525319,26.5022698 36.0876669,27.3613641 C32.5397345,28.3034212 31.132454,31.3160416 32.6636148,34.615695 C33.449016,36.2863746 34.6927745,37.5718901 36.2090696,38.6169848 C39.7916886,41.0972447 43.8004559,42.5201436 48.1015807,43.2266865 C48.7432808,43.3272707 49.7913083,43.3248175 50.0341138,43.5848645 C50.2769192,43.8449115 46.8355238,47.3702662 42.5443094,49.6935166 L42.5443094,49.6935166 C42.5443094,49.6935166 41.4269089,50.2994752 42.5244885,49.6935166 L42.5368766,49.6935166 C38.4364379,51.4893131 35.3171313,51.9677015 31.4867517,52.0952717 C30.9590215,52.1173512 30.4387242,52.1173512 29.9209044,52.1173512 L29.7796808,52.1173512 C29.2593835,52.1173512 28.7415637,52.1173512 28.2138336,52.097725 C24.383454,51.9848744 21.2616698,51.5187524 17.1562759,49.7352222 L17.1562759,49.7352222 C18.2563331,50.3264612 17.136455,49.7352222 17.136455,49.7352222 L17.136455,49.7352222 C15.0141073,48.5764833 13.0387465,47.1714857 11.2521397,45.5499369 C10.142172,44.5367348 9.51781512,43.7713133 9.62187459,43.6535562 C9.86963524,43.4082288 10.9127076,43.4082288 11.55193,43.2880184 C11.8690637,43.2364996 12.1812421,43.177621 12.4934205,43.1162892 C16.4278596,42.3484144 20.1095828,40.947595 23.419665,38.636611 C24.9235722,37.5866098 26.1722858,36.3060008 26.9527319,34.6230549 C28.4814151,31.3184949 27.0518361,28.3107811 23.501426,27.3809902 C22.6075457,27.146146 21.696216,26.982077 20.7760589,26.8903355 C16.2593823,26.4315732 12.1044363,27.8397525 8.14026592,30.3249189 C7.59271489,30.6683773 7.14922333,31.3528407 6.15818075,31.2448967 C6.84447774,28.6051739 7.96931108,26.3187226 9.73584449,24.4027157 C14.1732377,19.5992054 19.7949268,17.1729175 26.0880472,16.4467484 C26.5835685,16.3903231 27.0790898,16.3412576 27.5969095,16.3069118 C28.3174712,16.2546808 29.0404562,16.2432136 29.7623376,16.2725659 C30.4840317,16.240017 31.2070126,16.2482078 31.9277657,16.2970987 C36.0579356,16.5792252 39.9254794,17.5458151 43.396606,19.3857705 C45.8048003,20.6621733 47.9763766,22.3345893 49.818562,24.3315708 C51.5900506,26.2402179 52.7223168,28.5242159 53.4185242,31.1614854 C52.4646457,31.257163 52.0038109,30.5751529 51.4661703,30.2341478 Z M20.0947171,34.1593861 C18.5313475,35.386023 17.262813,36.0778463 16.0116217,36.2495755 C14.3466701,36.4801832 12.7114499,35.7810002 10.456828,34.1569328 C12.6240237,34.3734839 14.8039567,34.4382478 16.9803658,34.3507415 C18.0283934,34.3065825 19.0516448,34.2403441 20.0947171,34.1544795 L20.0947171,34.1593861 Z" id="Shape" fill="#5C4B42"></path>
                        <path d="M28.8976529,10.9587746 C29.3213237,10.9465082 29.7425168,10.944055 30.1587546,10.9587746 C31.8345822,11.0105566 33.5045705,11.1802604 35.1560869,11.4666023 C36.8904114,11.7536354 38.6643777,12.5362297 40.63903,12.9263003 C40.1980161,12.2123976 39.0261082,11.5794529 37.3859327,11.0397326 C35.1715874,10.3803318 32.8747545,10.0318407 30.5626045,10.0044511 C30.1686651,10.0044511 29.7772032,10.0044511 29.3906966,10.0044511 C26.9824631,10.0412502 24.7080204,10.3847085 23.2115461,10.8483773 C21.405371,11.3782844 20.2904481,12.0210422 19.8221804,12.7300384 C21.8339969,12.3546875 23.5608886,11.5451071 25.3001683,11.2924199 C26.49117,11.1073471 27.6926581,10.9959163 28.8976529,10.9587746 L28.8976529,10.9587746 Z" id="Path" fill="#5C4B42"></path>
                    </g>
                    <path d="M55.1808859,29 L33.1488499,29 L31.9963374,30.2834356 L30.8438248,29 L8.80690531,29 L7,30.4404908 L7,41.3705521 L8.46505836,43 L23.5795771,43 C28.3165991,43 28.597402,40.9337423 29.3128388,39.2723926 C30.0282756,37.6110429 30.6533672,36.0699387 31.9987791,36.0699387 C33.344191,36.0699387 33.9521903,37.6134969 34.6847194,39.2723926 C35.4172486,40.9312883 35.6809591,43 40.4179811,43 L55.5349416,43 L57,41.3705521 L57,30.4404908 L55.1808859,29 Z M26.104361,38.5705521 C26.104361,40.2638037 25.0763784,41.0049168 23.8530546,41.0049168 L12.1325878,41.0049168 C11.7611348,41.0062346 11.4046209,40.8580183 11.1426514,40.5933541 C10.8806819,40.3286899 10.7350741,39.9696195 10.7382868,39.596319 L10.7382868,32.396319 C10.742365,31.6289862 11.3617424,31.0086999 12.1252625,31.007362 L24.7198808,31.007362 C25.4839507,31.0087127 26.103017,31.6308781 26.104361,32.398773 L26.104361,38.5705521 Z M53.2494506,39.596319 C53.2467647,40.3646107 52.6269969,40.9863845 51.8625287,40.9877301 L40.1420618,40.9877301 C38.9211799,40.9877301 37.8907555,40.2515337 37.8907555,38.5533742 L37.8907555,32.396319 C37.8934414,31.6280273 38.5132092,31.0062535 39.2776774,31.004908 L51.869854,31.004908 C52.6343222,31.0062535 53.25409,31.6280273 53.2567759,32.396319 L53.2494506,39.596319 Z" id="Shape" fill="#FFFFFF"></path>
                    <g id="Group" opacity="0.8" style="mix-blend-mode: screen;" transform="translate(11.000000, 31.000000)">
                        <path d="M41.6042974,0 L28.8651146,0 C28.0917217,0.00134683629 27.4647184,0.623731061 27.4620012,1.39277698 L27.4620012,7.56324571 C27.4620012,9.25815949 28.5019849,10 29.7395902,10 L41.5968866,10 C42.3702795,9.99864449 42.9972828,9.37626026 43,8.60721434 L43,1.39032058 C42.9959615,0.625093975 42.3738375,0.00536898584 41.6042974,0 L41.6042974,0 Z" id="Path" fill="#EC1C24"></path>
                        <path d="M1.40312213,0 L14.1447752,0 C14.9177651,0.00135206777 15.5440586,0.624128235 15.5454183,1.39277698 L15.5454183,7.56324571 C15.5454183,9.25815949 14.5054346,10 13.2678293,10 L1.41053294,10 C1.03603596,10.0013026 0.676496933,9.85394992 0.411685939,9.59062613 C0.146874946,9.32730234 -0.00130993754,8.96978252 0,8.59738876 L0,1.39032058 C0.00408014348,0.622234463 0.630688442,0.00133923668 1.40312213,0 Z" id="Path" fill="#00ADEE"></path>
                        <path d="M34.0008061,0 L30.7548712,9.99753493 L35.0753736,9.99753493 L38.3213085,0 L34.0008061,0 Z M39.1883733,0 L35.9399681,9.99753493 L37.1751032,9.99753493 L40.4185678,0 L39.1883733,0 Z" id="Shape" fill="url(#linearGradient-1)" opacity="0.3"></path>
                        <path d="M6.62774335,0 L3.38180846,9.99753493 L7.70231083,9.99753493 L10.9482457,0 L6.62774335,0 Z M11.8153105,0 L8.56690536,9.99753493 L9.8020404,9.99753493 L13.0380942,0 L11.8153105,0 Z" id="Shape" fill="url(#linearGradient-2)" opacity="0.3"></path>
                    </g>
                    <path d="M221.717867,18 C221.918027,18 222.309248,18.2258104 222.891531,18.6774313 C223.521786,19.153686 223.913007,19.5798519 224.065195,19.9559289 C224.217382,20.3320059 224.293476,21.1465658 224.293476,22.3996084 L224.293476,23.4219138 C224.293476,25.277665 224.230616,26.3681241 224.104896,26.6932911 C224.028661,26.9145583 224.042006,27.156576 224.142116,27.3682591 C224.268663,27.5702568 224.596197,27.6318414 225.134643,27.5579398 C225.67309,27.4840382 226.042806,27.4815748 226.194167,27.4815748 C226.690431,27.4815748 227.052703,27.5702568 227.25369,27.7451572 C227.448651,27.932237 227.558031,28.1903576 227.556411,28.4595393 C227.542982,28.869192 227.374664,29.2588031 227.08496,29.5508195 C226.786437,29.891061 226.377337,30.1167932 225.928666,30.1888367 C224.792221,30.3645582 224.148733,30.6650914 223.998199,31.0904361 C223.847666,31.5157809 223.742623,34.2082624 223.683072,39.1678806 L223.683072,39.768947 C223.683072,42.6757431 223.783979,44.153775 223.985793,44.2030427 L224.023012,44.2030427 C224.14956,44.2030427 224.320771,43.9148265 224.534164,43.3383941 C224.747558,42.7619616 224.951026,42.1535051 225.139606,41.515488 C225.233572,41.1502152 225.353811,40.792105 225.499397,40.4439149 C225.631343,40.2373501 225.72152,40.00726 225.764899,39.7664836 C225.898364,39.164557 226.095481,38.5783049 226.352971,38.0174791 C226.668099,37.2784631 226.913749,36.8350536 227.097367,36.6823236 C227.329221,36.4886447 227.629259,36.394674 227.93109,36.4212046 C228.114308,36.4172791 228.295984,36.4552059 228.462093,36.532057 C228.613453,36.608422 228.687893,36.8350536 228.687893,37.2094883 C228.687893,38.2375416 228.208171,39.9298882 227.248727,42.286528 C226.365378,44.3902601 225.746702,45.6679366 225.392701,46.1195575 C225.266153,46.2698241 225.122237,46.4521147 224.95847,46.6664293 C224.840941,46.8239606 224.714175,46.9744875 224.578828,47.117229 C224.450146,47.2358123 224.310586,47.3422003 224.161966,47.4350059 C223.94314,47.5754925 223.708243,47.6896116 223.462234,47.7749532 C223.143833,47.8962195 222.809614,47.9717048 222.469707,47.9991214 C222.301106,48.0051521 222.132841,47.9800948 221.973443,47.9252198 C221.481384,47.7809972 221.028456,47.5283827 220.648418,47.1862039 C220.252698,46.8533568 219.930075,46.4433496 219.700554,45.9816078 C219.043005,44.4543082 218.708027,43.5625622 218.708027,43.3137602 C218.708027,42.9130493 218.531853,42.2487561 218.179506,41.3208805 C217.774224,40.3355259 217.395409,38.6686343 217.043062,36.3202058 C216.600153,33.5087049 216.359683,30.669436 216.323479,27.8239856 C216.272198,25.4919796 216.208511,23.7117723 216.132417,22.4833635 L216.057978,20.116049 L216.6262,19.5888843 C217.526092,18.7825358 218.680732,18.3029965 220.090122,18.1502666 C221.100018,18.0517311 221.643427,18 221.717867,18 Z M134.124817,19.5790308 C134.677123,19.5863868 135.228002,19.636629 135.772413,19.7292974 C136.391089,19.8294751 136.763287,19.9427909 136.889007,20.0692447 C137.129129,20.395708 137.302759,20.7655614 137.400159,21.1580616 C137.560979,21.5934346 137.656293,22.04996 137.683029,22.5129242 C137.683029,23.2880698 137.79717,23.6764637 138.025451,23.678106 C138.176812,23.678106 138.340579,23.4761083 138.521715,23.0770397 C138.80623,22.5282966 139.199538,22.0423104 139.67801,21.6482755 C140.141209,21.2150854 140.688241,20.8798518 141.285905,20.6629209 C141.676418,20.5311138 142.086853,20.4669521 142.49927,20.4732401 C143.134935,20.4958606 143.756658,20.6645028 144.315595,20.9659174 C144.865703,21.1954831 145.329825,21.5899344 145.643101,22.0941484 C145.892887,22.5457693 146.169968,23.4490111 146.474343,24.8038737 C146.593355,25.5366972 146.644023,26.2788573 146.625704,27.0209216 C146.643672,27.7629783 146.593006,28.5051063 146.474343,29.2379694 C145.994621,31.3729045 145.42061,32.9075943 144.752308,33.8420389 C144.084006,34.7764835 143.230432,35.244527 142.191586,35.2461692 C142.001448,35.2506885 141.811284,35.2383223 141.623364,35.2092184 C141.23454,35.1738365 140.858786,35.0517356 140.52414,34.8520274 C140.090567,34.5616178 139.685188,34.2317411 139.313256,33.8666728 C138.999362,33.5485341 138.657208,33.2591459 138.290952,33.0020241 C138.238845,33.0020241 138.214032,33.2138753 138.214032,33.6400412 C138.185214,34.3860224 138.262058,35.1323254 138.442313,35.8570891 C138.517993,36.2167958 138.574316,36.5802498 138.611043,36.945906 C138.675557,37.4730707 138.732627,38.0560722 138.782254,38.6949104 C138.83188,39.3329275 138.859175,39.7172158 138.859175,39.8403852 C139.003796,41.1490773 139.066777,42.4653946 139.047755,43.7818036 C139.06244,44.0582483 139.049975,44.3354558 139.010535,44.6095015 C138.90435,44.9351005 138.722442,45.2313073 138.479533,45.4741502 C138.247257,45.7398853 137.963789,45.9568128 137.645809,46.1121673 C136.534178,46.639332 135.739329,46.9029144 135.261262,46.9029144 L135.184341,46.9029144 C135.008736,46.8686702 134.831513,46.8431833 134.653338,46.8265494 C134.440688,46.7419544 134.248043,46.6144526 134.087598,46.4521147 C133.834503,46.2254831 133.669082,45.8149187 133.591334,45.2204214 C133.566512,44.7716077 133.477105,44.3286322 133.325833,43.904973 C133.159144,43.3283776 133.057612,42.7351556 133.023112,42.1362614 C132.493764,38.5544974 132.162921,35.6477013 132.030584,33.415873 C131.980958,32.0856443 131.874261,30.1239675 131.710494,27.5308426 C131.546727,24.9377177 131.439203,23.1271285 131.387922,22.0990752 L131.311001,20.4806303 L131.727863,20.1431463 C132.014981,19.9303114 132.362127,19.8122733 132.720391,19.8056623 C132.995481,19.8277481 133.271483,19.7758398 133.519376,19.6553958 C133.569002,19.6036646 133.767507,19.5790308 134.124817,19.5790308 Z M166.012251,21.5719105 C166.642506,21.6244627 167.216518,22.0440596 167.734286,22.830701 C168.282138,23.7133405 168.612816,24.7117067 168.699519,25.7448873 C168.864333,27.2438118 168.952946,28.7500305 168.96502,30.2578115 C168.736739,34.5687379 168.383565,37.538761 167.905497,39.1678806 C167.460993,40.6340097 166.755031,42.0090302 165.821189,43.2275417 C165.445529,43.6479936 165.127636,44.1160034 164.875806,44.6193551 C164.496992,45.345233 163.701315,45.9840712 162.488777,46.5358698 C162.033869,46.7625014 161.352333,46.8758172 160.44417,46.8758172 L159.875948,46.8758172 C159.265744,46.8498731 158.675125,46.6544227 158.171282,46.3117016 C157.590653,45.9109908 157.300339,45.6597253 157.300339,45.5579053 C157.174617,45.1175798 157.008501,44.6896232 156.804075,44.2794077 C156.618145,43.8892499 156.490264,43.4743572 156.424433,43.0477145 C156.424433,42.6962713 156.677528,42.394917 157.183717,42.1436516 L157.749458,41.8431184 L158.697322,42.8974479 C159.327577,43.5724158 159.719625,43.9123631 159.870986,43.9123631 C160.099267,43.9123631 160.301081,43.3482476 160.476427,42.2200166 C160.816956,39.8405835 161.006737,37.4422794 161.04465,35.0392448 C161.09593,32.8599688 161.159617,31.657015 161.235711,31.4303835 C161.274154,31.346891 161.299268,31.2579651 161.310151,31.1668011 C161.312098,31.1217828 161.290526,31.0789494 161.25308,31.0534853 C161.186089,31.0273933 161.111641,31.0273933 161.04465,31.0534853 C160.843663,31.1052165 160.704709,31.2801169 160.627788,31.5806501 C160.472554,32.1288019 160.257036,32.6583319 159.985126,33.1596808 C159.631125,33.8609249 159.454124,34.2870907 159.454124,34.4381785 C159.454124,34.5892662 159.214263,35.034318 158.734541,35.773334 C158.440776,36.2610951 158.084642,36.7090485 157.675018,37.1060261 C157.426886,37.3080238 156.903328,37.4065593 156.121712,37.4065593 C155.340097,37.4065593 154.821501,37.2833899 154.568406,37.0321245 C154.276793,36.7330683 154.034007,36.3906382 153.848824,36.0172092 C153.570916,35.5245319 153.434444,35.1771944 153.434444,35.002294 C153.36974,34.7967106 153.266157,34.6052555 153.129241,34.4381785 C152.7008,33.861746 152.196265,32.345121 151.615637,29.8883035 C151.451534,29.1809821 151.324813,28.4656226 151.235995,27.7451572 C151.184807,27.0448571 151.058368,26.3519946 150.858834,25.6783759 L150.593333,24.8876288 L151.010195,24.4368291 C151.282792,24.0868869 151.701089,23.8792501 152.146639,23.8727135 C152.420147,23.8895995 152.688713,23.9529229 152.940661,24.0599309 C153.194427,24.1373973 153.423009,24.2801849 153.603173,24.4737799 C153.75386,24.7383499 153.838917,25.0347419 153.851305,25.3384285 C153.952212,26.2925803 154.047329,27.0315962 154.136657,27.5554764 C154.223503,28.0801778 154.35005,28.6837075 154.513817,29.3586754 C154.677584,30.0336433 154.799169,30.5903687 154.87609,31.0140711 C154.99171,31.6438257 155.168716,32.2609317 155.404611,32.8566843 C155.544208,33.2246786 155.658609,33.6016135 155.747033,33.9849153 C155.748949,34.2165622 155.828381,34.4410039 155.972833,34.6229324 C156.124194,34.8249301 156.263147,34.9234656 156.389695,34.9234656 L156.439321,34.9234656 C156.541882,34.8988317 156.656023,34.7608821 156.781743,34.5096167 C157.031529,33.9085503 157.33425,33.2319402 157.689906,32.4797861 C158.245721,31.3302058 158.523629,30.7283183 158.523629,30.6741238 C158.523629,30.6494899 158.67499,30.312006 158.977711,29.6592085 C159.300992,29.0007038 159.566644,28.3158235 159.771733,27.6121343 C160.049641,26.7220306 160.239048,26.1513461 160.339955,25.9000807 C160.548767,25.4044733 160.701074,24.8872299 160.794036,24.3580007 C160.859107,24.0200196 161.00935,23.7039083 161.230749,23.4391575 C161.49625,23.0745763 161.689793,22.8922857 161.81634,22.8922857 C162.093817,22.8039324 162.351591,22.6634318 162.575624,22.4784368 C163.023915,22.1746191 163.790643,21.8978987 164.875806,21.6482755 C165.245759,21.5481807 165.632086,21.522221 166.012251,21.5719105 Z M194.602011,18.8646487 C194.871133,18.938733 195.127208,19.0533834 195.361294,19.204596 C195.561493,19.4225576 195.715868,19.6779893 195.815376,19.9559289 L196.192536,20.8205776 L196.080877,29.8439625 C196.004783,35.6329209 195.878236,39.70572 195.701235,42.0623598 C195.575515,43.9673788 195.25956,45.1703325 194.753371,45.6712211 C194.592842,45.848639 194.381636,45.9732436 194.147929,46.0284122 C193.633054,46.0872195 193.115364,46.1184676 192.597105,46.1220209 L190.815517,46.1220209 L190.475577,45.6293436 C189.894948,44.8082147 189.44004,42.8030181 189.110851,39.6137536 C188.958664,38.2868094 188.87099,37.5847442 188.847831,37.5075581 C188.841527,37.4974382 188.835485,37.4724841 188.829703,37.4326956 L188.818487,37.3333396 C188.764147,36.7376643 188.735903,34.6585589 188.733727,31.0960233 L188.733639,30.3637371 C188.733639,27.6589387 188.758504,25.9296413 188.80813,25.175845 C188.910691,23.8981685 188.986785,22.9210252 189.036412,22.244415 C189.188599,20.1373984 189.416053,18.9713954 189.718774,18.7464061 C189.793214,18.6774313 190.058715,18.6158466 190.512797,18.5641155 C190.789532,18.5329609 191.068089,18.5206152 191.34652,18.5271647 C192.441884,18.4977221 193.536402,18.6111864 194.602011,18.8646487 Z M94.7016178,18.8646487 C94.9700534,18.9384882 95.2253478,19.0531636 95.4584202,19.204596 C95.6604943,19.4216073 95.8158496,19.6772645 95.9149829,19.9559289 L96.2921434,20.8205776 L96.1780028,29.8439625 C96.1035632,35.6329209 95.977843,39.70572 95.8008422,42.0623598 C95.6751221,43.9673788 95.3591674,45.1703325 94.8529783,45.6712211 C94.6920479,45.8481538 94.4810053,45.9726621 94.2475364,46.0284122 C93.7318367,46.087284 93.2133167,46.1185322 92.6942306,46.1220209 L90.9151247,46.1220209 L90.575184,45.6293436 C89.9912469,44.8082147 89.5363383,42.8030181 89.2104584,39.6137536 C89.0582708,38.2868094 88.9697704,37.5847442 88.9449573,37.5075581 C88.9389216,37.4974382 88.9331307,37.4724841 88.9275844,37.4326956 L88.9168181,37.3333396 C88.864618,36.7376643 88.8368866,34.6585589 88.8336241,31.0960233 L88.8338608,29.6802661 C88.8378008,27.3655675 88.8624264,25.8640938 88.9077375,25.175845 C89.0102987,23.8981685 89.0863924,22.9210252 89.1360188,22.244415 C89.2882064,20.1373984 89.5148336,18.9713954 89.8159003,18.7464061 C89.8928212,18.6774313 90.1583223,18.6158466 90.6124038,18.5641155 C90.8891394,18.5329609 91.1676959,18.5206152 91.446127,18.5271647 C92.5414862,18.4978643 93.6359851,18.6113267 94.7016178,18.8646487 Z M106.636763,21.4142538 C106.937428,21.4179955 107.236216,21.4619098 107.525076,21.5448132 C107.74396,21.6013875 107.959367,21.6704776 108.170218,21.7517377 C108.429971,21.8892577 108.68256,22.039716 108.927021,22.2025375 C109.123363,22.3439939 109.328937,22.4723715 109.542388,22.5868258 C110.12374,22.9042424 110.631061,23.3399034 111.03118,23.8653234 L111.636621,24.7299721 L111.676323,27.0603357 L111.676323,28.3486869 C111.694712,29.0599976 111.60521,29.7700076 111.410821,30.4548824 C110.777258,32.5093468 109.956768,33.6745286 108.949353,33.9504279 L108.30421,34.1006945 L108.30421,36.1699392 C108.30421,38.7975515 108.443164,40.1113577 108.721071,40.1113577 C108.822805,40.1113577 108.936946,39.8871895 109.063493,39.4363898 C109.177366,39.0760205 109.315813,38.7237633 109.477874,38.3820603 C109.614453,38.1404044 109.692602,37.8705468 109.706155,37.5937766 C109.706155,37.1684319 110.02211,36.8925326 110.654019,36.7660787 C110.939324,36.6904435 111.243812,36.7489802 111.480053,36.9248808 C111.716295,37.1007815 111.858156,37.3745869 111.864903,37.6676782 C111.864903,38.1176568 111.322321,39.4963322 110.237157,41.8037042 C109.858604,42.5919991 109.356051,43.3154354 108.748366,43.9468505 C108.103223,44.625103 107.566431,45.0258139 107.13799,45.1489832 C106.840634,45.2182368 106.534679,45.2439638 106.229827,45.2253482 C104.741035,45.2253482 103.781592,45.0750816 103.351497,44.7745484 C102.972352,44.4646216 102.638328,44.1039962 102.358969,43.7029753 C102.007869,43.2692677 101.708918,42.7963875 101.468175,42.2939182 C100.862733,40.865154 100.509559,39.724606 100.408652,38.8722742 C100.304414,38.0618537 100.253027,37.2455938 100.254765,36.4285948 C100.254765,35.4998981 100.279623,34.7239313 100.331731,34.0957677 C100.434292,32.3418365 100.547606,31.0764769 100.671672,30.2996891 C100.823596,29.4292362 101.05192,28.573644 101.354035,27.7426938 C101.537422,27.27512 101.695623,26.7981912 101.827967,26.3139296 C101.975838,25.7737526 102.165819,25.245816 102.396189,24.7348988 C102.579833,24.3434027 102.831856,23.9872831 103.140584,23.6830328 C103.663412,23.170102 104.220491,22.692764 104.808031,22.2542686 C105.416781,21.7763716 105.836951,21.5086836 106.068541,21.4512046 C106.256461,21.4221007 106.446625,21.4097345 106.636763,21.4142538 Z M122.234336,21.4142538 C122.534986,21.4181739 122.83375,21.4620848 123.122648,21.5448132 C123.341416,21.6017858 123.5568,21.6708687 123.767791,21.7517377 C124.027543,21.8892577 124.280133,22.039716 124.524593,22.2025375 C124.72435,22.3418349 124.933245,22.4677472 125.149886,22.5794356 C125.731238,22.8968522 126.238558,23.3325133 126.638677,23.8579332 L127.244119,24.7225819 L127.28382,27.0529456 L127.28382,28.3486869 C127.30221,29.0599976 127.212708,29.7700076 127.018319,30.4548824 C126.384756,32.5093468 125.564266,33.6745286 124.556851,33.9504279 L123.911708,34.1006945 L123.911708,36.1699392 C123.911708,38.7975515 124.050661,40.1113577 124.328569,40.1113577 C124.430303,40.1113577 124.541963,39.8871895 124.66851,39.4363898 C124.783036,39.075904 124.922317,38.7236353 125.085372,38.3820603 C125.220795,38.1399269 125.298865,37.8703423 125.313653,37.5937766 C125.313653,37.1684319 125.62878,36.8925326 126.259036,36.7660787 C126.544682,36.6895465 126.849912,36.7476546 127.086779,36.9236605 C127.323647,37.0996665 127.465844,37.3740222 127.472401,37.6676782 C127.472401,38.1176568 126.929819,39.4963322 125.844655,41.8037042 C125.466102,42.5919991 124.963548,43.3154354 124.355864,43.9468505 C123.710721,44.625103 123.173929,45.0258139 122.745488,45.1489832 C122.448132,45.2182368 122.142177,45.2439638 121.837325,45.2253482 C120.348533,45.2253482 119.38909,45.0750816 118.958994,44.7745484 C118.576053,44.4648519 118.237898,44.1042733 117.95406,43.7029753 C117.603623,43.2692856 117.305493,42.796386 117.065748,42.2939182 C116.460306,40.865154 116.106304,39.724606 116.003743,38.8722742 C115.901598,38.061683 115.851045,37.2455035 115.852357,36.4285948 C115.852357,35.4998981 115.877196,34.7239313 115.929304,34.0957677 C116.028556,32.3418365 116.14187,31.0764769 116.269244,30.2996891 C116.421169,29.4292362 116.649493,28.573644 116.951607,27.7426938 C117.133853,27.2747137 117.292034,26.7978445 117.425539,26.3139296 C117.573411,25.7737526 117.763391,25.245816 117.993761,24.7348988 C118.171404,24.3392765 118.418408,23.9781197 118.723269,23.6682525 C119.24554,23.1547239 119.802662,22.6773497 120.390716,22.2394883 C121.0127,21.7714448 121.437832,21.5086836 121.666114,21.4512046 C121.854022,21.4219953 122.044196,21.4096285 122.234336,21.4142538 Z M236.980461,18.5764009 C237.43882,18.5749549 237.895853,18.6253694 238.342706,18.726699 C238.898521,18.8531529 239.229364,19.0847112 239.335233,19.421374 C239.446893,19.7613214 239.556071,20.6949449 239.655323,22.2222445 C239.92496,26.2277111 240.059779,28.9185503 240.059779,30.2947623 C240.059779,30.7874396 240.146625,31.0337782 240.32528,31.0337782 C240.451,31.0337782 240.589954,30.8835117 240.742141,30.5829785 C241.171651,29.7827061 241.762969,29.0790915 242.479065,28.5161972 C242.852418,28.2421359 243.272788,28.0376435 243.719724,27.9126675 C244.171299,27.7566716 244.643849,27.6686568 245.12167,27.6515485 C245.540569,27.6606037 245.952968,27.7562465 246.332553,27.9323746 C246.762649,28.119592 247.02815,28.3265164 247.129057,28.553148 C247.709686,29.630469 248,31.4853991 248,34.1179382 C248,35.4711585 247.949547,36.812062 247.84864,38.1406484 C247.671639,40.6450914 247.506217,42.2742111 247.352376,43.0280074 C247.198534,43.7793403 246.947921,44.1931892 246.593092,44.2597006 C246.518652,44.2867979 246.392105,44.3237487 246.215931,44.3730164 C246.104881,44.4105932 245.990079,44.4361956 245.873509,44.4493814 L245.79907,44.4493814 C245.317694,44.4493814 244.95294,44.0601663 244.699845,43.2841996 C244.564678,42.8454374 244.501015,42.388048 244.511265,41.929337 C244.537156,41.1964645 244.625978,40.4671208 244.776766,39.7492399 C244.953767,38.7950881 245.054674,38.1562499 245.079487,37.8327251 C245.1043,37.3055604 245.161371,36.5295936 245.248217,35.4998981 C245.335063,34.4702025 245.394615,33.4947014 245.419428,32.5684681 C245.419428,32.4428353 245.419428,32.2728617 245.439279,32.0610104 C245.451189,31.9338997 245.45506,31.826299 245.456251,31.7387404 L245.456648,31.5905036 L245.456648,31.5905036 C245.456648,30.4869064 245.317694,29.9375712 245.042268,29.9375712 C244.766841,29.9375712 244.131623,30.5755883 243.223461,31.854086 L242.78923,32.4551523 C242.575836,32.7458319 242.429438,32.9478296 242.354999,33.0389749 C242.126717,33.3148742 241.766926,33.9791674 241.275625,35.0318546 C240.90475,35.7876787 240.582363,36.5660181 240.310392,37.3622183 C240.164544,38.209878 240.080787,39.0669194 240.059779,39.9266037 C240.059779,41.2042802 239.983685,41.9564342 239.831497,42.1830658 C239.655323,42.4072339 239.164022,42.7225474 238.355112,43.121616 C237.686303,43.5088161 236.932633,43.7286329 236.159145,43.7620966 C235.873213,43.7780653 235.586467,43.7523368 235.308052,43.6857316 C235.112725,43.5973165 234.93787,43.4698486 234.794419,43.3112968 C234.491698,43.0107637 234.340338,42.7594982 234.340338,42.5575005 C234.285133,42.2026688 234.170217,41.8595797 234.000397,41.5425853 C233.52233,40.4652642 233.219609,36.7307702 233.092234,30.3391032 C232.991327,25.8048297 232.902827,23.3734672 232.826733,23.0450157 C232.798239,22.9089603 232.785749,22.7700814 232.789513,22.6311667 C232.789513,22.5079974 232.80192,22.3257068 232.826733,22.0867583 C232.851546,21.8478098 232.863953,21.6679826 232.863953,21.5423499 C232.867453,21.4034435 232.854965,21.2645946 232.826733,21.1285009 C232.757018,20.8964356 232.718636,20.6562108 232.712592,20.4141188 C232.700186,19.9041978 233.02772,19.54208 233.685269,19.3154484 C235.048341,18.8227711 236.146738,18.5764009 236.980461,18.5764009 Z M209.107803,21.7542011 C209.418317,21.9616919 209.698819,22.2103301 209.941526,22.4932171 C210.484602,23.1002891 210.942806,23.7772419 211.30377,24.5058039 C211.678692,25.1551306 211.947532,25.8593711 212.100274,26.5922923 C212.192545,27.4924691 212.229833,28.3973663 212.211933,29.3020175 C212.211933,30.5567024 212.174713,31.2957183 212.100274,31.5190654 C211.971245,31.8195986 211.805824,32.8599688 211.60401,34.6401762 C211.452237,35.5772747 211.250135,36.5056527 210.998568,37.4213396 C210.802705,38.4513438 210.410223,39.434655 209.842273,40.3182822 C209.323603,41.0438207 208.626585,41.6255593 207.817517,42.0081653 C207.215197,42.3487677 206.539861,42.5421358 205.847349,42.5722808 C205.069064,42.5575258 204.31232,42.3159526 203.671232,41.8776058 C202.99864,41.4634104 202.453594,40.8737312 202.095595,40.1729423 C201.061712,38.0380073 200.443036,36.1830773 200.239568,34.6081521 C200.140315,33.7311865 200.088207,33.167071 200.088207,32.9158056 C200.088207,32.8665378 200.088207,32.7606122 200.108058,32.5955653 C200.127908,32.4305184 200.127908,32.2901054 200.127908,32.1644727 C200.202348,30.4351753 200.290021,29.2322215 200.390928,28.5556114 C200.48372,27.9085957 200.662268,27.2765987 200.921931,26.6760474 C201.519175,25.3066228 202.381642,24.0670499 203.46032,23.027772 C203.856321,22.6267132 204.316666,22.2937314 204.822564,22.0424173 C205.410222,21.83951 206.024691,21.7233141 206.646334,21.6975432 C207.16094,21.633035 207.678584,21.5952117 208.197159,21.5842274 C208.51017,21.5656418 208.822964,21.6240255 209.107803,21.7542011 Z M78.7963617,20.2564521 C80.361247,20.2564521 81.4976912,20.5192233 82.2056943,21.0447458 C82.8111362,21.4980089 83.4926718,22.3125687 84.2503013,23.4884252 L84.9773278,24.6536071 L84.9773278,26.456806 C84.9773278,27.6343048 84.940108,28.2624684 84.8631871,28.33637 C84.8317512,28.3635252 84.7905639,28.3768587 84.7490465,28.3733208 C84.4745624,28.350631 84.206013,28.2814794 83.9550243,28.1688597 C83.6910182,28.0909425 83.4545069,27.9406692 83.2726615,27.7353037 C83.0996133,27.4530013 83.0206029,27.1237281 83.0468615,26.79429 C83.0122074,26.2060019 82.8568424,25.6309467 82.5902988,25.1044068 C82.1353902,24.0254435 81.6556685,23.4859618 81.1511336,23.4859618 C81.0314432,23.4817889 80.9307036,23.5741073 80.9253336,23.6928863 C80.8905578,24.0621432 80.8781289,24.4331388 80.8881138,24.8038737 C80.9357718,26.0957926 81.1128178,27.3797962 81.4166348,28.6369031 C81.5569558,29.3758018 81.7860464,30.0953233 82.0989975,30.7800494 C82.3480096,31.2684238 82.5635467,31.7729216 82.7441405,32.2901054 C82.9691135,32.9158056 83.1072403,33.2918826 83.1585209,33.4183364 C83.6413274,34.4189353 83.9003477,35.5113955 83.9178045,36.6207389 C83.9178045,37.3482591 83.5042513,38.2564276 82.6771449,39.3452445 C81.8500385,40.4340613 81.0857922,41.0794686 80.384406,41.2814663 C79.8881421,41.4317329 79.5382761,41.4588301 79.3621025,41.3578313 C79.1859288,41.2568324 78.7318474,41.2075647 78.0742978,41.2075647 C77.3870055,41.2110447 76.7100356,41.0415422 76.1066117,40.7148874 C75.6101137,40.4345468 75.151529,40.09268 74.7418861,39.6975087 C74.2878047,39.2738063 74.0595233,38.9584928 74.0595233,38.7959093 C74.0595233,38.6702766 74.1984772,38.5027663 74.4763849,38.2884516 C74.7433395,38.0825701 75.0361037,37.9119902 75.347328,37.780994 C75.5196055,37.6993637 75.7073393,37.6548683 75.8981808,37.6504345 C76.0631467,37.6909503 76.2134998,37.7762455 76.3324117,37.8967732 C77.1413218,38.5750256 77.7343571,38.9133307 78.1115176,38.9116884 C78.1775545,38.920223 78.244598,38.907257 78.3025792,38.8747376 C78.4787528,38.6998372 78.5680803,38.5618875 78.5680803,38.4608887 C78.5680803,38.258891 78.3720561,37.7826363 77.9800077,37.0321245 C77.6024958,36.3042287 77.1789994,35.6007599 76.7120535,34.925929 C76.381211,34.4513165 75.4217676,32.8846027 73.8337233,30.2257875 C73.2779078,29.375098 73,28.260005 73,26.8805085 C73,26.1283545 73.2522675,24.8966612 73.7568024,23.1854287 C73.9260767,22.6980528 74.2043261,22.2550607 74.5706751,21.8896874 C74.9270152,21.4704251 75.3586269,21.1204479 75.8435918,20.8575284 C76.5764081,20.4551753 77.5606647,20.2548198 78.7963617,20.2564521 Z M178.696754,20.2564521 C180.26164,20.2564521 181.398084,20.5192233 182.106087,21.0447458 C182.711529,21.4980089 183.393065,22.3125687 184.150694,23.4884252 L184.870277,24.6560705 L184.870277,26.4592694 C184.870277,27.6367682 184.833057,28.2649318 184.756136,28.3388334 C184.725462,28.3656009 184.685193,28.3789266 184.644477,28.3757842 C184.36914,28.3534202 184.09972,28.2842606 183.847973,28.1713231 C183.583967,28.0934059 183.347456,27.9431326 183.16561,27.737767 C182.992562,27.4554647 182.913552,27.1261915 182.93981,26.7967534 C182.904969,26.2087934 182.750502,25.633936 182.485729,25.1068702 C182.029166,24.0279069 181.549444,23.4884252 181.046564,23.4884252 C180.988636,23.4857517 180.932017,23.5060638 180.889193,23.5448819 C180.846368,23.5837001 180.820856,23.6378357 180.818282,23.6953497 C180.783507,24.0646066 180.771078,24.4356022 180.781063,24.806337 C180.828544,26.0984242 181.006435,27.3825266 181.312065,28.6393665 C181.451822,29.378102 181.68007,30.0975931 181.991946,30.7825128 C182.241798,31.2688062 182.457363,31.7717235 182.637089,32.287642 C182.817068,32.7882021 182.941994,33.1290035 183.011868,33.310046 L183.053951,33.415873 L183.053951,33.415873 C183.530581,34.4179767 183.784457,35.5101575 183.798347,36.6182756 C183.798347,37.3457957 183.384794,38.2539642 182.557687,39.3427811 C181.730581,40.4315979 180.966334,41.0770052 180.264948,41.2790029 C179.768684,41.4292695 179.418818,41.4563667 179.242645,41.3553679 C179.066471,41.254369 178.61239,41.2051013 177.95484,41.2051013 C177.267548,41.2085813 176.590578,41.0390788 175.987154,40.712424 C175.491065,40.4314648 175.032555,40.0896541 174.622428,39.6950454 C174.168347,39.2713429 173.942547,38.9560294 173.942547,38.7934459 C173.942547,38.6678132 174.079019,38.5003029 174.359408,38.2859882 C174.625648,38.0790617 174.918557,37.9083977 175.230351,37.7785306 C175.401692,37.6967411 175.588653,37.6522283 175.778723,37.6479711 C175.943887,37.6879944 176.094369,37.7733625 176.212954,37.8943098 C177.021864,38.5725622 177.615726,38.9108673 177.994541,38.909225 C178.059775,38.9175742 178.125974,38.9046031 178.183121,38.8722742 C178.359295,38.6973738 178.448623,38.5594242 178.448623,38.4584253 C178.448623,38.2564276 178.252598,37.7801729 177.86055,37.0296611 C177.483038,36.3017653 177.059542,35.5982965 176.592596,34.9234656 C176.261753,34.4488531 175.30231,32.8821393 173.714265,30.2233241 C173.15845,29.3726346 172.880542,28.2575416 172.880542,26.8780451 C172.880542,26.1258911 173.133637,24.8941978 173.639826,23.1829653 C173.808154,22.6951424 174.086529,22.2519508 174.453699,21.887224 C174.815403,21.4671675 175.253014,21.1179379 175.743985,20.8575284 C176.476801,20.4551753 177.461057,20.2548198 178.696754,20.2564521 Z M208.46266,23.8505431 C208.363407,23.8505431 208.214528,23.9811025 207.991209,24.2446849 C207.828769,24.4039976 207.716667,24.6068918 207.668638,24.8285075 C207.663295,25.0423733 207.597989,25.2505235 207.480057,25.4295738 C207.174028,25.953454 206.832433,27.6704345 206.455272,30.5805151 C206.405646,31.1323137 206.380833,31.8122084 206.380833,32.6472964 C206.380833,34.7042242 206.442866,35.8299919 206.569413,36.0319896 C206.592767,36.0783592 206.633704,36.7306253 206.692226,37.9887879 L206.703404,38.2317937 C206.767919,39.6490621 206.824162,40.3815091 206.872134,40.4291345 C206.910145,40.4738181 206.96473,40.5013576 207.023495,40.5054995 C207.326215,40.5054995 207.730671,40.0793337 208.23686,39.2270019 C208.719076,38.4404592 209.055243,37.574409 209.229387,36.6700067 C209.429547,35.6173195 209.580908,34.6270381 209.683469,33.6991625 C209.78603,32.7712869 209.886937,31.994499 209.98619,31.3687988 C210.076712,30.7845522 210.114908,30.1934914 210.10033,29.6025507 C210.10033,27.7238078 209.98619,26.5832599 209.757908,26.1809067 C209.631997,26.0079182 209.551802,25.806339 209.524664,25.5946207 L209.524664,25.6069377 C209.448492,25.2584501 209.313418,24.9252872 209.125172,24.621583 C208.862152,24.1067353 208.628908,23.8505431 208.46266,23.8505431 Z M142.608448,22.2862926 C142.454606,22.2862926 142.253619,22.4562663 142.000525,22.7937502 C141.681318,23.2342669 141.384833,23.6905801 141.112212,24.1609298 C140.76979,24.7373622 140.586173,25.0510334 140.561359,25.1019434 C140.02407,25.9921868 139.556215,26.9219577 139.161895,27.8831068 L138.745034,28.7847063 L139.313256,29.8759866 C139.764724,30.7485282 140.303397,31.5738057 140.921151,32.3393731 C141.541481,33.1030229 141.988118,33.4848479 142.266026,33.4848479 C142.469494,33.4848479 142.682887,33.3296545 142.911169,33.014341 C143.127767,32.7238645 143.270749,32.3858924 143.32803,32.0289864 C143.376964,31.6699216 143.465157,31.3172184 143.59105,30.9771204 C143.689152,30.7839052 143.739579,29.6485866 143.742365,27.5711648 L143.74245,26.0823713 C143.74245,24.8802386 143.691957,24.0845648 143.59105,23.6953497 C143.469835,23.2689551 143.249741,22.8766601 142.948389,22.549875 C142.821841,22.3749745 142.700257,22.2862926 142.608448,22.2862926 Z M109.363733,25.3630624 L109.249592,25.3630624 C109.154589,25.3595731 109.065928,25.41028 109.021311,25.4936219 C108.958763,25.618103 108.914478,25.7508285 108.889801,25.8877637 C108.852581,26.0626642 108.820324,26.1882969 108.795511,26.2646619 C108.55793,27.3579691 108.39298,28.4655953 108.301728,29.5803802 C108.174042,30.3522013 108.086254,31.1300078 108.038709,31.9107439 C108.038709,32.1373754 108.100742,32.2506912 108.227289,32.2506912 C108.353836,32.2506912 108.574674,31.9107439 108.889801,31.2333126 C109.178754,30.6325429 109.400903,30.0023015 109.552313,29.3537486 C109.645284,28.7838444 109.683503,28.2064598 109.666454,27.629378 L109.666454,26.9420932 C109.641641,26.240028 109.614346,25.806472 109.589533,25.6438885 C109.587651,25.5100875 109.49474,25.394535 109.363733,25.3630624 Z M124.961306,25.3630624 L124.847165,25.3630624 C124.752161,25.3595731 124.663501,25.41028 124.618884,25.4936219 C124.556336,25.618103 124.51205,25.7508285 124.487374,25.8877637 C124.447673,26.0626642 124.417897,26.1882969 124.393083,26.2646619 C124.15499,27.3554817 123.989213,28.4606294 123.89682,29.57299 C123.768845,30.3448433 123.680232,31.1226226 123.631319,31.9033537 C123.631319,32.1299853 123.695833,32.243301 123.82238,32.243301 C123.948927,32.243301 124.167283,31.9033537 124.484892,31.2259224 C124.773846,30.6251528 124.995994,29.9949114 125.147405,29.3463585 C125.239039,28.7763044 125.277249,28.1990447 125.261545,27.6219879 L125.264027,26.9420932 C125.236732,26.240028 125.211919,25.806472 125.187106,25.6438885 C125.185223,25.5100875 125.092313,25.394535 124.961306,25.3630624 Z" id="Combined-Shape" fill="#FFFFFF"></path>
                </g>
            </g>
        </g>
    </g>
</svg>